<?xml version="1.0" encoding="utf-8"?>
<!-- Generator: Adobe Illustrator 26.2.1, SVG Export Plug-In . SVG Version: 6.00 Build 0)  -->
<svg version="1.1" id="Layer_1" xmlns="http://www.w3.org/2000/svg" xmlns:xlink="http://www.w3.org/1999/xlink" x="0px" y="0px"
	 viewBox="0 0 680 122.1" style="enable-background:new 0 0 680 122.1;" xml:space="preserve">
<style type="text/css">
	.st0{fill:url(#SVGID_1_);}
	.st1{fill:#FFFFFF;}
</style>
<linearGradient id="SVGID_1_" gradientUnits="userSpaceOnUse" x1="60.1646" y1="118.6201" x2="61.9346" y2="-1.1999" gradientTransform="matrix(1 0 0 -1 0 121.08)">
	<stop  offset="0" style="stop-color:#DF42AB"/>
	<stop  offset="1" style="stop-color:#B028D1"/>
</linearGradient>
<path class="st0" d="M114.3,0H65.1l8.2,11.7c1.6-0.4,3.4-0.6,5.1-0.6c12.4,0,22.4,10,22.4,22.4s-10,22.4-22.4,22.4
	s-22.4-10-22.4-22.4c0-4.2,1.2-8.1,3.2-11.5L43.8,0H7.8C3.5,0,0,3.5,0,7.8v106.6c0,4.3,3.5,7.8,7.8,7.8H57l-8.2-11.7
	c-1.7,0.4-3.4,0.6-5.1,0.6c-12.4,0-22.4-10-22.4-22.4s10-22.4,22.4-22.4S66,76.2,66,88.6c0,4.2-1.2,8.1-3.2,11.5l15.4,22h36.1
	c4.3,0,7.8-3.5,7.8-7.8V7.8C122.1,3.5,118.6,0,114.3,0z"/>
<g>
	<path class="st1" d="M210.6,42.5c3.6,4.2,5.4,10.4,5.4,18.8v37.4h-15.6V62.2c0-4.7-0.9-8.2-2.7-10.4c-1.8-2.2-4.6-3.2-8.4-3.2
		c-4.5,0-8.1,1.4-10.8,4.2s-4.1,6.6-4.1,11.4v34.6h-15.6v-61h15.2v9.1c2.1-3.4,4.9-6,8.4-7.9s7.4-2.7,11.9-2.7
		C201.6,36.2,207.1,38.3,210.6,42.5L210.6,42.5z"/>
	<path class="st1" d="M284.1,71h-41.5c0.5,5.7,2.2,9.9,5.1,12.6c2.9,2.8,7.1,4.1,12.5,4.1c6.7,0,12.9-2.2,18.5-6.5l4.5,10.7
		c-2.8,2.3-6.4,4.2-10.7,5.6c-4.3,1.4-8.6,2.1-12.9,2.1c-10,0-17.9-2.8-23.6-8.5c-5.8-5.7-8.7-13.4-8.7-23.2
		c0-6.2,1.2-11.8,3.7-16.6c2.5-4.8,6-8.6,10.5-11.2s9.7-4,15.4-4c8.4,0,15,2.7,19.9,8.1c4.9,5.4,7.3,12.9,7.3,22.3L284.1,71
		L284.1,71z M247.2,51.2c-2.5,2.7-4.1,6.5-4.7,11.5h28.2c-0.2-5.1-1.4-8.9-3.7-11.5c-2.3-2.6-5.6-3.9-9.7-3.9S249.8,48.5,247.2,51.2
		L247.2,51.2z"/>
	<path class="st1" d="M307,95.9c-4.7-2.6-8.3-6.3-10.9-11.1c-2.6-4.8-3.9-10.4-3.9-16.8s1.3-12,3.9-16.8s6.2-8.5,10.9-11
		c4.7-2.6,10.2-3.9,16.4-3.9s11.7,1.3,16.4,3.9s8.3,6.3,10.9,11c2.5,4.8,3.8,10.4,3.8,16.8s-1.3,12-3.8,16.8s-6.2,8.5-10.9,11.1
		c-4.7,2.6-10.2,3.9-16.4,3.9S311.7,98.4,307,95.9z M334.9,82.6c2.7-3.3,4-8.2,4-14.7s-1.3-11.3-4-14.7s-6.5-5-11.5-5
		s-8.8,1.7-11.5,5s-4,8.3-4,14.7s1.3,11.4,4,14.7c2.7,3.3,6.5,5,11.5,5S332.2,86,334.9,82.6z"/>
	<path class="st1" d="M417.9,42.5c3.6,4.2,5.4,10.4,5.4,18.8v37.4h-15.6V62.2c0-4.7-0.9-8.2-2.7-10.4c-1.8-2.2-4.6-3.2-8.4-3.2
		c-4.5,0-8.1,1.4-10.8,4.2s-4,6.6-4,11.4v34.6h-15.6v-61h15.2v9.1c2.1-3.4,4.9-6,8.4-7.9s7.4-2.7,11.9-2.7
		C408.8,36.2,414.3,38.3,417.9,42.5L417.9,42.5z"/>
	<path class="st1" d="M445.4,97.7c-4.5-1.3-8.4-3.2-11.5-5.7l4.4-10.9c6.5,4.7,13.9,7.1,22.3,7.1c3.6,0,6.3-0.6,8.2-1.8
		c1.9-1.2,2.8-2.8,2.8-5c0-1.8-0.7-3.2-1.9-4.2c-1.3-1-3.6-1.9-6.9-2.8l-10-2.2c-5.7-1.2-9.9-3.3-12.6-6.1c-2.8-2.8-4.1-6.5-4.1-11
		c0-3.7,1.1-7,3.2-9.9s5.1-5.1,8.9-6.7c3.8-1.6,8.2-2.4,13.2-2.4c4.3,0,8.5,0.7,12.5,2c4,1.3,7.6,3.2,10.7,5.6L480,54.4
		c-6.3-4.6-12.6-6.9-19-6.9c-3.4,0-6.1,0.6-8,1.9c-1.9,1.2-2.9,3-2.9,5.2c0,1.7,0.6,3,1.8,4.1c1.2,1.1,3.1,1.9,5.8,2.5l10.4,2.4
		c6.1,1.3,10.5,3.4,13.3,6.3c2.8,2.9,4.2,6.6,4.2,11.3c0,5.7-2.3,10.1-6.9,13.5c-4.6,3.3-10.8,5-18.6,5
		C454.9,99.7,449.9,99,445.4,97.7L445.4,97.7z"/>
	<path class="st1" d="M508.2,95.9c-4.7-2.6-8.3-6.2-10.8-11c-2.5-4.7-3.7-10.3-3.7-16.6s1.3-11.9,3.9-16.8
		c2.6-4.9,6.3-8.6,11.2-11.3c4.8-2.7,10.4-4,16.7-4c4.3,0,8.5,0.7,12.7,2.1s7.4,3.2,9.9,5.5l-4.5,11c-2.6-2.1-5.3-3.7-8.2-4.7
		s-5.7-1.6-8.5-1.6c-5.4,0-9.6,1.7-12.6,5s-4.5,8.2-4.5,14.5s1.5,11,4.5,14.4s7.2,5,12.6,5c2.8,0,5.7-0.5,8.5-1.6s5.6-2.7,8.2-4.7
		l4.5,10.9c-2.7,2.4-6.1,4.3-10.2,5.7c-4.2,1.4-8.5,2.1-13,2.1C518.5,99.7,512.9,98.4,508.2,95.9z"/>
	<path class="st1" d="M602,42.5c4.2,4.2,6.2,10.6,6.2,19.2v37h-14.8v-9.4c-1.4,3.2-3.6,5.8-6.7,7.6s-6.5,2.7-10.5,2.7
		s-7.8-0.8-11.1-2.5c-3.3-1.7-6-4-7.9-6.9c-1.9-2.9-2.9-6.1-2.9-9.7c0-4.5,1.1-8,3.4-10.6c2.3-2.6,6-4.5,11.2-5.6
		c5.2-1.2,12.3-1.8,21.3-1.8h3.1v-2.9c0-4.2-0.9-7.1-2.7-9c-1.8-1.8-4.8-2.7-8.9-2.7c-3.2,0-6.6,0.6-10.2,1.7s-7,2.7-10.4,4.7
		l-4.4-10.7c3.4-2.2,7.5-4,12.3-5.4c4.8-1.4,9.4-2.1,13.7-2.1C591.5,36.2,597.8,38.3,602,42.5L602,42.5z M589.5,84.3
		c2.6-2.8,3.9-6.4,3.9-10.8v-2.6h-2.2c-5.6,0-9.9,0.2-13,0.8c-3.1,0.5-5.3,1.4-6.6,2.6c-1.3,1.2-2,3-2,5.1c0,2.7,0.9,4.9,2.8,6.5
		c1.8,1.7,4.2,2.6,7,2.6C583.5,88.5,586.9,87.1,589.5,84.3L589.5,84.3z"/>
	<path class="st1" d="M674.6,42.5c3.6,4.2,5.4,10.4,5.4,18.8v37.4h-15.6V62.2c0-4.7-0.9-8.2-2.7-10.4c-1.8-2.2-4.6-3.2-8.4-3.2
		c-4.5,0-8.1,1.4-10.8,4.2c-2.7,2.8-4,6.6-4,11.4v34.6h-15.6v-61h15.2v9.1c2.1-3.4,4.9-6,8.4-7.9s7.4-2.7,11.8-2.7
		C665.6,36.2,671.1,38.3,674.6,42.5L674.6,42.5z"/>
</g>
</svg>
